<?xml version="1.0" encoding="UTF-8"?>
<svg width="752pt" height="752pt" version="1.1" viewBox="0 0 752 752" xmlns="http://www.w3.org/2000/svg">
 <g>
  <path d="m457.4 257.61v14.801c0 2.043 1.6523 3.6992 3.6992 3.6992h40.699v70.297c0 2.043 1.6523 3.6992 3.6992 3.6992h37c2.0469 0 3.6992-1.6562 3.6992-3.6992v-44.398h11.098c2.0469 0 3.6992-1.6562 3.6992-3.6992v-25.898c0-10.199-8.2969-18.5-18.5-18.5h-1.9961c3.5312-3.9336 5.6992-9.1094 5.6992-14.801 0-12.242-9.957-22.199-22.199-22.199-12.242 0-22.199 9.957-22.199 22.199 0 5.6914 2.168 10.867 5.6992 14.801h-46.398c-2.0469 0-3.6992 1.6562-3.6992 3.6992zm51.797-18.5c0-8.1602 6.6367-14.801 14.801-14.801 8.1602 0 14.801 6.6367 14.801 14.801 0 8.1602-6.6367 14.801-14.801 14.801-8.1641 0-14.801-6.6367-14.801-14.801zm-44.398 22.199h77.695c6.1211 0 11.098 4.9805 11.098 11.098v22.199h-7.3984v-22.199h-7.3984v70.297h-11.098v-40.695h-7.3984v40.699h-11.098l-0.003907-70.297c0-2.043-1.6523-3.6992-3.6992-3.6992h-40.699z"/>
  <path d="m303.09 214.29 5.2305 5.2305 14.801-14.801c1.4453-1.4453 1.4453-3.7852 0-5.2305l-14.801-14.801-5.2305 5.2305 8.4805 8.4883h-42.863v7.3984h42.867z"/>
  <path d="m308.32 321.59-5.2305 5.2305 8.4805 8.4883h-39.164v7.3984h39.168l-8.4844 8.4844 5.2305 5.2305 14.801-14.801c1.4453-1.4453 1.4453-3.7852 0-5.2305z"/>
  <path d="m168.81 239.11h73.996c1.3086 0 2.5273-0.69531 3.1875-1.8242 0.66406-1.1328 0.67969-2.5273 0.042968-3.6758l-37-66.598c-1.3008-2.3477-5.1641-2.3477-6.4688 0l-37 66.598c-0.63672 1.1484-0.62109 2.5469 0.042969 3.6758 0.67188 1.1289 1.8906 1.8242 3.1992 1.8242zm37-62.676 30.711 55.277h-61.422z"/>
  <path d="m357.5 239.11h66.598c2.0469 0 3.6992-1.6562 3.6992-3.6992v-66.598c0-2.043-1.6523-3.6992-3.6992-3.6992h-66.598c-2.0469 0-3.6992 1.6562-3.6992 3.6992v66.598c-0.003907 2.043 1.6523 3.6992 3.6992 3.6992zm3.6992-66.598h59.199v59.199h-59.199z"/>
  <path d="m202.11 376c20.402 0 37-16.598 37-37s-16.598-37-37-37c-20.402 0.003906-37 16.602-37 37.004 0 20.398 16.598 36.996 37 36.996zm0-66.598c16.32 0 29.598 13.277 29.598 29.598s-13.277 29.598-29.598 29.598-29.598-13.277-29.598-29.598c-0.003907-16.316 13.277-29.598 29.598-29.598z"/>
  <path d="m426.03 311.79-33.297-20.348c-1.1836-0.72266-2.6758-0.72266-3.8594 0l-33.297 20.348c-1.0977 0.67969-1.7734 1.875-1.7734 3.1602v40.699c0 1.2891 0.67188 2.4844 1.7734 3.1602l33.297 20.348c0.59375 0.35938 1.2617 0.54297 1.9297 0.54297s1.3359-0.17969 1.9258-0.53906l33.297-20.348c1.1016-0.67969 1.7773-1.875 1.7773-3.1641v-40.699c0-1.2852-0.67578-2.4805-1.7734-3.1602zm-5.6289 41.785-29.598 18.09-29.598-18.09v-36.547l29.598-18.09 29.598 18.09z"/>
  <path d="m390.8 265.01c2.0469 0 3.6992-1.6562 3.6992-3.6992v-14.801h-7.3984v11.098h-184.99c-2.0469 0-3.6992 1.6562-3.6992 3.6992v20.668l-8.4844-8.4844-5.2305 5.2305 14.801 14.801c0.71875 0.72266 1.6641 1.0859 2.6133 1.0859 0.94531 0 1.8945-0.36328 2.6172-1.0859l14.801-14.801-5.2305-5.2305-8.4883 8.4844v-16.965z"/>
  <path d="m446.3 146.61h-295.99c-2.043 0-3.6992 1.6602-3.6992 3.6992v244.19c0 2.043 1.6523 3.6992 3.6992 3.6992h295.99c2.0469 0 3.6992-1.6562 3.6992-3.6992l0.003906-244.19c0-2.0391-1.6562-3.6992-3.7031-3.6992zm-3.6992 244.19h-288.59v-236.79h288.59z"/>
  <path d="m146.61 553.59c0 2.043 1.6523 3.6992 3.6992 3.6992h11.098v44.398c0 2.043 1.6523 3.6992 3.6992 3.6992h37c2.0469 0 3.6992-1.6562 3.6992-3.6992v-44.398h22.195v44.398c0 2.043 1.6523 3.6992 3.6992 3.6992h37c2.0469 0 3.6992-1.6562 3.6992-3.6992v-44.398h22.195v44.398c0 2.043 1.6523 3.6992 3.6992 3.6992h37c2.0469 0 3.6992-1.6562 3.6992-3.6992v-44.398h22.195v44.398c0 2.043 1.6523 3.6992 3.6992 3.6992h37c2.0469 0 3.6992-1.6562 3.6992-3.6992v-44.398h11.098c2.0469 0 3.6992-1.6562 3.6992-3.6992v-29.598c0-10.199-8.2969-18.5-18.5-18.5h-1.9961c3.5312-3.9336 5.6992-9.1094 5.6992-14.801 0-11.098-8.1953-20.293-18.844-21.918-1.5977-8.5664-9.1133-15.078-18.141-15.078h-1.9961c3.5312-3.9336 5.6992-9.1094 5.6992-14.801 0-12.242-9.957-22.199-22.199-22.199-12.242 0-22.199 9.957-22.199 22.199 0 5.6914 2.168 10.867 5.6992 14.801h-2.0039c-6.0703 0-11.426 2.9805-14.801 7.5156-3.3711-4.5352-8.7266-7.5156-14.797-7.5156h-1.9961c3.5312-3.9336 5.6992-9.1094 5.6992-14.801 0-12.242-9.957-22.199-22.199-22.199-12.242 0-22.199 9.957-22.199 22.199 0 5.6914 2.168 10.867 5.6992 14.801h-2c-6.0703 0-11.426 2.9805-14.801 7.5156-3.375-4.5352-8.7266-7.5156-14.801-7.5156h-1.9961c3.5312-3.9336 5.6992-9.1094 5.6992-14.801 0-12.242-9.957-22.199-22.199-22.199-12.242 0-22.199 9.957-22.199 22.199 0 5.6914 2.168 10.867 5.6992 14.801h-2c-9.0273 0-16.543 6.5117-18.156 15.082-10.648 1.6211-18.844 10.816-18.844 21.914 0 5.6914 2.168 10.867 5.6992 14.801h-2c-10.199 0-18.5 8.2969-18.5 18.5zm118.4-29.598v73.996h-11.098v-40.699h-7.3984v40.699h-11.098v-73.996h-7.3984v25.898h-7.3984v-25.898c0-6.1211 4.9805-11.098 11.098-11.098h37c6.1211 0 11.098 4.9805 11.098 11.098v25.898h-7.3984v-25.898zm-29.602-33.301c0-8.1602 6.6367-14.801 14.801-14.801 8.1602 0 14.801 6.6367 14.801 14.801 0 8.1602-6.6367 14.801-14.801 14.801-8.1641 0-14.801-6.6367-14.801-14.801zm96.195 33.301v73.996h-11.098v-40.699h-7.3984v40.699h-11.098v-73.996h-7.3984v25.898h-7.3984v-25.898c0-6.1211 4.9805-11.098 11.098-11.098h37c6.1211 0 11.098 4.9805 11.098 11.098v25.898h-7.3984v-25.898zm-29.598-33.301c0-8.1602 6.6367-14.801 14.801-14.801 8.1602 0 14.801 6.6367 14.801 14.801 0 8.1602-6.6367 14.801-14.801 14.801-8.1641 0-14.801-6.6367-14.801-14.801zm111 33.301v25.898h-7.3984v-25.898h-7.3984v73.996h-11.098v-40.699h-7.3984v40.699h-11.098v-73.996h-7.3984v25.898h-7.3984v-25.898c0-6.1211 4.9805-11.098 11.098-11.098h37c6.1094-0.003907 11.09 4.9766 11.09 11.098zm-14.801-33.301c0 8.1602-6.6367 14.801-14.801 14.801-8.1602 0-14.801-6.6367-14.801-14.801 0-8.1602 6.6367-14.801 14.801-14.801 8.1641 0.003907 14.801 6.6406 14.801 14.801zm-62.895-51.797c0-8.1602 6.6367-14.801 14.801-14.801 8.1602 0 14.801 6.6367 14.801 14.801 0 8.1602-6.6367 14.801-14.801 14.801-8.1641 0-14.801-6.6367-14.801-14.801zm-3.7031 22.199h37c4.9727 0 9.1367 3.3047 10.547 7.8164-10.211 1.9922-17.945 10.996-17.945 21.781 0 5.6914 2.168 10.867 5.6992 14.801h-2c-6.0703 0-11.426 2.9805-14.801 7.5156-3.375-4.5352-8.7266-7.5156-14.797-7.5156h-1.9961c3.5312-3.9336 5.6992-9.1094 5.6992-14.801 0-10.785-7.7383-19.789-17.949-21.781 1.4062-4.5117 5.5703-7.8164 10.543-7.8164zm-62.895-22.199c0-8.1602 6.6367-14.801 14.801-14.801 8.1602 0 14.801 6.6367 14.801 14.801 0 8.1602-6.6367 14.801-14.801 14.801-8.1641 0-14.801-6.6367-14.801-14.801zm-3.6992 22.199h37c4.9727 0 9.1367 3.3047 10.547 7.8164-10.215 1.9922-17.949 10.996-17.949 21.781 0 5.6914 2.168 10.867 5.6992 14.801h-2c-6.0703 0-11.426 2.9805-14.801 7.5156-3.3711-4.5352-8.7266-7.5156-14.797-7.5156h-1.9961c3.5312-3.9336 5.6992-9.1094 5.6992-14.801 0-10.785-7.7383-19.789-17.949-21.781 1.4062-4.5117 5.5742-7.8164 10.547-7.8164zm-62.898-22.199c0-8.1602 6.6367-14.801 14.801-14.801 8.1602 0 14.801 6.6367 14.801 14.801 0 8.1602-6.6367 14.801-14.801 14.801-8.1641 0-14.801-6.6367-14.801-14.801zm-3.6992 22.199h37c4.9727 0 9.1367 3.3047 10.547 7.8164-10.215 1.9922-17.949 10.996-17.949 21.781 0 5.6914 2.168 10.867 5.6992 14.801h-2c-6.0703 0-11.426 2.9805-14.801 7.5156-3.3711-4.5352-8.7266-7.5156-14.797-7.5156h-1.9961c3.5312-3.9336 5.6992-9.1094 5.6992-14.801 0-10.785-7.7383-19.789-17.949-21.781 1.4062-4.5117 5.5742-7.8164 10.547-7.8164zm-29.602 29.598c0-8.1602 6.6367-14.801 14.801-14.801 8.1602 0 14.801 6.6367 14.801 14.801 0 8.1602-6.6367 14.801-14.801 14.801-8.1602 0-14.801-6.6367-14.801-14.801zm-14.797 33.301c0-6.1211 4.9805-11.098 11.098-11.098h37c6.1211 0 11.098 4.9805 11.098 11.098v25.898h-7.3984v-25.898h-7.3984v73.996h-11.098v-40.699h-7.3984v40.699h-11.105v-73.996h-7.3984v25.898h-7.3984z"/>
  <path d="m586.89 490.7h-1.9961c3.5312-3.9336 5.6992-9.1094 5.6992-14.801 0-12.242-9.957-22.199-22.199-22.199-12.242 0-22.199 9.957-22.199 22.199 0 5.6914 2.168 10.867 5.6992 14.801h-2.0039c-10.199 0-18.5 8.2969-18.5 18.5v18.5h-14.801c-2.0469 0-3.6992 1.6562-3.6992 3.6992v14.801c0 2.043 1.6523 3.6992 3.6992 3.6992h29.598v51.797c0 2.043 1.6523 3.6992 3.6992 3.6992h37c2.0469 0 3.6992-1.6562 3.6992-3.6992v-55.496h11.098c2.0469 0 3.6992-1.6562 3.6992-3.6992v-33.297c0.003906-10.203-8.293-18.504-18.492-18.504zm-33.301-14.797c0-8.1602 6.6367-14.801 14.801-14.801 8.1602 0 14.801 6.6367 14.801 14.801 0 8.1602-6.6367 14.801-14.801 14.801-8.1641-0.003907-14.801-6.6406-14.801-14.801zm44.398 62.895h-7.3984v-29.598h-7.3984v88.797h-11.098v-51.797h-7.3984v51.797h-11.098v-88.797h-7.3984v33.297h-25.898v-7.3984h14.801c2.0469 0 3.6992-1.6562 3.6992-3.6992v-22.199c0-6.1211 4.9805-11.098 11.098-11.098h37c6.1211 0 11.098 4.9805 11.098 11.098z"/>
  <path d="m450 483.3c0 5.6914 2.168 10.867 5.6992 14.801h-2c-10.199 0-18.5 8.2969-18.5 18.5v29.598c0 2.043 1.6523 3.6992 3.6992 3.6992h10.285l-10.215 51.074c-0.21875 1.0859 0.066406 2.2148 0.76562 3.0703 0.70703 0.85547 1.7539 1.3516 2.8633 1.3516h18.5c1.7461 0 3.2539-1.2227 3.6172-2.9258l7.4844-34.914 7.4805 34.914c0.36719 1.707 1.8711 2.9258 3.6172 2.9258h18.5c1.1094 0 2.1562-0.49609 2.8594-1.3555 0.69922-0.85547 0.98438-1.9844 0.76562-3.0703l-11.023-55.137v-25.531h3.6992c14.277 0 25.898-11.617 25.898-25.898v-29.598c0-2.043-1.6523-3.6992-3.6992-3.6992h-14.801c-2.0469 0-3.6992 1.6562-3.6992 3.6992v29.598c0 2.0391-1.6562 3.6992-3.6992 3.6992h-9.3984c3.5312-3.9336 5.6992-9.1094 5.6992-14.801 0-12.242-9.957-22.199-22.199-22.199-12.246 0-22.199 9.957-22.199 22.199zm59.195 11.102v-25.898h7.3984v25.898c0 10.199-8.2969 18.5-18.5 18.5h-7.3984c-2.0469 0-3.6992 1.6562-3.6992 3.6992v29.598c0 0.24609 0.027344 0.48438 0.074218 0.72656l10.211 51.07h-10.996l-10.473-48.871c-0.36328-1.707-1.8672-2.9258-3.6133-2.9258-1.7461 0-3.2539 1.2227-3.6172 2.9258l-10.477 48.871h-10.992l10.215-51.07c0.046875-0.24219 0.074219-0.48047 0.074219-0.72656v-29.598h-7.3984v25.898h-7.3984v-25.898c0-6.1211 4.9805-11.098 11.098-11.098h44.398c6.1133-0.003906 11.094-4.9844 11.094-11.102zm-36.996-25.902c8.1602 0 14.801 6.6367 14.801 14.801 0 8.1602-6.6367 14.801-14.801 14.801-8.1602 0-14.801-6.6367-14.801-14.801 0-8.1602 6.6367-14.801 14.801-14.801z"/>
  <path d="m549.89 361.2h-73.996c-6.1211 0-11.098 4.9805-11.098 11.098v51.797c0 6.1211 4.9805 11.098 11.098 11.098h16.969l17.414 17.414c0.71875 0.72656 1.668 1.0898 2.6133 1.0898 0.94531 0 1.8945-0.36328 2.6172-1.0859l17.414-17.414h16.969c6.1211 0 11.098-4.9805 11.098-11.098v-51.801c0-6.1172-4.9766-11.098-11.098-11.098zm3.6992 62.895c0 2.0391-1.6562 3.6992-3.6992 3.6992h-18.5c-0.98438 0-1.9258 0.38672-2.6172 1.0859l-15.883 15.883-15.883-15.883c-0.69141-0.69531-1.6328-1.082-2.6133-1.082h-18.5c-2.043 0-3.6992-1.6602-3.6992-3.6992v-51.801c0-2.0391 1.6562-3.6992 3.6992-3.6992h73.996c2.043 0 3.6992 1.6602 3.6992 3.6992z"/>
  <path d="m520.3 376h-14.801c-6.1211 0-11.098 4.9805-11.098 11.098v7.3984h7.3984v-7.3984c0-2.0391 1.6562-3.6992 3.6992-3.6992h14.801c2.043 0 3.6992 1.6602 3.6992 3.6992v5.1133l-12.754 6.3789c-1.2539 0.62891-2.0469 1.9102-2.0469 3.3086v7.3984h7.3984v-5.1133l12.754-6.3789c1.2539-0.62109 2.0469-1.9023 2.0469-3.3047v-7.3984c0-6.1211-4.9805-11.102-11.098-11.102z"/>
  <path d="m509.2 416.7h7.3984v7.3984h-7.3984z"/>
  <path d="m594.29 150.31h-111c-6.1211 0-11.098 4.9805-11.098 11.098v37c0 6.1211 4.9805 11.098 11.098 11.098h70.297v14.801c0 1.4961 0.89844 2.8438 2.2812 3.418 0.46094 0.19141 0.94141 0.28516 1.418 0.28516 0.96094 0 1.9102-0.37891 2.6172-1.0859l17.414-17.414h16.969c6.1211 0 11.098-4.9805 11.098-11.098v-37c0-6.1211-4.9766-11.102-11.098-11.102zm3.6992 48.102c0 2.0391-1.6562 3.6992-3.6992 3.6992h-18.5c-0.98438 0-1.9258 0.38672-2.6172 1.0859l-12.184 12.18v-9.5664c0-2.043-1.6523-3.6992-3.6992-3.6992h-73.996c-2.043 0-3.6992-1.6602-3.6992-3.6992v-37c0-2.0391 1.6562-3.6992 3.6992-3.6992h111c2.043 0 3.6992 1.6602 3.6992 3.6992z"/>
  <path d="m490.7 168.81h29.598v7.3984h-29.598z"/>
  <path d="m527.7 168.81h29.598v7.3984h-29.598z"/>
  <path d="m564.7 168.81h22.199v7.3984h-22.199z"/>
  <path d="m490.7 183.61h11.098v7.3984h-11.098z"/>
  <path d="m509.2 183.61h29.598v7.3984h-29.598z"/>
  <path d="m546.2 183.61h40.699v7.3984h-40.699z"/>
 </g>
</svg>
